v -0.07900000 -0.04400000 -0.00600000
v 0.05300000 -0.04400000 0.00000000
v -0.03000000 -0.10000000 0.03200000
v 0.00200000 -0.09700000 -0.03500000
v -0.03300000 -0.03400000 0.04900000
v -0.05800000 -0.10000000 -0.01100000
v 0.02700000 -0.10000000 0.01800000
v 0.04100000 -0.03100000 -0.06200000
v -0.07100000 -0.04800000 0.02800000
v 0.00800000 -0.04700000 0.05200000
v 0.00600000 -0.10600000 0.00000000
v -0.05900000 -0.03700000 -0.06200000
v 0.03400000 -0.09800000 -0.00900000
v 0.04300000 -0.03300000 0.02300000
v -0.07200000 -0.03300000 0.02200000
v -0.04800000 -0.04800000 0.04800000
v -0.05500000 -0.09700000 0.02100000
v 0.00700000 -0.09700000 0.03500000
v -0.03100000 -0.10000000 -0.03300000
v -0.03900000 -0.10500000 0.00800000
v -0.07500000 -0.04800000 -0.02000000
v 0.02100000 -0.04600000 -0.06200000
v 0.02200000 -0.09700000 -0.02800000
v 0.05100000 -0.04800000 -0.01000000
v 0.03300000 -0.09700000 0.01200000
v 0.01900000 -0.10400000 -0.00400000
v 0.04900000 -0.03200000 0.00400000
v 0.00900000 -0.03400000 0.04900000
v 0.03700000 -0.04800000 0.03700000
v -0.07800000 -0.04400000 0.01100000
v -0.06300000 -0.03100000 -0.05900000
v -0.03500000 -0.04500000 0.05200000
v -0.06100000 -0.04500000 0.04000000
v -0.04200000 -0.09800000 0.03100000
v 0.00600000 -0.10100000 0.03200000
v -0.04500000 -0.09800000 -0.03000000
v -0.06000000 -0.10000000 0.00200000
v -0.03600000 -0.10400000 -0.01600000
v -0.06200000 -0.09700000 -0.00300000
v -0.04900000 -0.04700000 -0.06200000
v 0.02800000 -0.09700000 -0.02100000
v 0.02900000 -0.04200000 -0.06200000
v 0.03400000 -0.09900000 0.00400000
v 0.02000000 -0.10300000 0.01100000
v 0.00900000 -0.10400000 -0.01900000
v 0.04900000 -0.04400000 0.02000000
v -0.05300000 -0.03000000 -0.03800000
v 0.03000000 -0.03300000 0.03900000
v 0.01900000 -0.09800000 0.03000000
v -0.07600000 -0.03300000 0.00700000
v -0.07200000 -0.04400000 0.02700000
v -0.06100000 -0.09700000 0.01100000
v -0.01100000 -0.03100000 -0.06200000
v -0.05800000 -0.09700000 -0.01700000
v -0.04800000 -0.03400000 0.04500000
v -0.03400000 -0.04800000 0.05200000
v -0.05000000 -0.09800000 0.02700000
v -0.03300000 -0.09700000 0.03500000
v 0.00600000 -0.10400000 0.01900000
v -0.04700000 -0.10400000 -0.00300000
v -0.02400000 -0.10500000 -0.00800000
v -0.04100000 -0.10000000 -0.03000000
v -0.07900000 -0.04800000 -0.00600000
v -0.03400000 -0.09700000 -0.03500000
v -0.05200000 -0.04600000 -0.06200000
v 0.03500000 -0.03700000 -0.06200000
v 0.01200000 -0.09700000 -0.03300000
v 0.05200000 -0.04800000 0.00700000
v 0.03100000 -0.10000000 -0.01100000
v 0.00900000 -0.10000000 -0.03200000
v 0.04200000 -0.04400000 0.03100000
v 0.02800000 -0.09700000 0.02200000
v 0.01300000 -0.03000000 -0.03800000
v 0.02200000 -0.04500000 0.04700000
v 0.02200000 -0.04800000 0.04700000
v 0.01700000 -0.10000000 0.02800000
v -0.07600000 -0.03300000 -0.00500000
v -0.06400000 -0.03100000 -0.04100000
v -0.07800000 -0.04800000 0.01000000
v -0.06100000 -0.03400000 0.03600000
v -0.06200000 -0.03100000 -0.06000000
v -0.05100000 -0.10000000 -0.02200000
v -0.05200000 -0.09700000 -0.02500000
v -0.05800000 -0.04800000 0.04200000
v -0.05500000 -0.10000000 0.01600000
v -0.04600000 -0.10100000 0.02500000
v -0.03300000 -0.10300000 0.02000000
v 0.02100000 -0.10000000 -0.02500000
v 0.04600000 -0.04800000 0.02400000
v 0.03300000 -0.04500000 0.04100000
v 0.04100000 -0.03100000 -0.05300000
v -0.06400000 -0.03100000 -0.04400000
vn -0.98685400 0.11997600 -0.10828100
vn 0.99930600 0.03491000 -0.01296000
vn -0.06198200 -0.86826300 0.49221700
vn 0.05073100 -0.57290300 -0.81805200
vn -0.07801700 0.76100300 0.64404000
vn -0.58369900 -0.78690300 -0.20019600
vn 0.45141800 -0.84927400 0.27378100
vn 0.59205000 0.45224100 -0.66704900
vn -0.82628700 -0.19937200 0.52678400
vn 0.15702600 -0.05634600 0.98598600
vn 0.06321800 -0.99798600 0.00522900
vn -0.47501000 -0.10542800 -0.87364200
vn 0.80146100 -0.56825900 -0.18639400
vn 0.56804200 0.75170100 0.33507200
vn -0.59982000 0.73627000 0.31324600
vn -0.40237400 -0.08143700 0.91184600
vn -0.72169300 -0.49893900 0.47981300
vn 0.16067600 -0.46637100 0.86987400
vn -0.05468400 -0.81765500 -0.57310500
vn -0.11160800 -0.99039300 0.08164200
vn -0.93163400 -0.17436500 -0.31883400
vn 0.09708000 -0.29390300 -0.95089300
vn 0.49935300 -0.59802700 -0.62690500
vn 0.96337800 -0.20043800 -0.17812100
vn 0.80021900 -0.51876100 0.30089200
vn 0.22078500 -0.97455900 -0.03859300
vn 0.63190400 0.77099900 0.07910400
vn 0.12996800 0.71421900 0.68774900
vn 0.71097500 -0.16382100 0.68386900
vn -0.97337400 0.07797600 0.21555300
vn -0.72197900 0.54720700 -0.42345100
vn -0.16326300 0.11343900 0.98003900
vn -0.66375500 0.03047900 0.74732900
vn -0.30788700 -0.60411100 0.73502100
vn 0.09951300 -0.83453300 0.54189700
vn -0.42046700 -0.63061200 -0.65233100
vn -0.61134100 -0.79002200 0.04612800
vn -0.08714400 -0.98381200 -0.15659100
vn -0.87529700 -0.47387800 -0.09641000
vn -0.05832300 -0.28185600 -0.95768200
vn 0.66908800 -0.58747900 -0.45518000
vn 0.21515500 -0.29168900 -0.93200100
vn 0.70814100 -0.70171200 0.07833400
vn 0.22219800 -0.96843600 0.11295700
vn 0.09803600 -0.97599200 -0.19449800
vn 0.92603100 0.04958200 0.37417800
vn -0.03715600 0.99930500 0.00304100
vn 0.38166100 0.75964700 0.52656600
vn 0.44862300 -0.57807700 0.68159000
vn -0.67343400 0.73369800 0.09040700
vn -0.85985800 0.06719000 0.50609200
vn -0.80059500 -0.53915500 0.26145800
vn -0.00126100 0.69223300 -0.72167300
vn -0.76188800 -0.52298700 -0.38211500
vn -0.28314100 0.73283900 0.61869000
vn -0.11981800 -0.18219900 0.97593400
vn -0.53170500 -0.57916200 0.61794900
vn -0.16031800 -0.54489800 0.82303300
vn 0.07443200 -0.98214600 0.17277100
vn -0.19720700 -0.97972500 -0.03533700
vn -0.02336100 -0.99735300 -0.06886300
vn -0.23218000 -0.82871700 -0.50923500
vn -0.98020700 -0.16585700 -0.10810200
vn -0.15036200 -0.56643200 -0.81027500
vn -0.29583700 -0.30750800 -0.90438900
vn 0.26946200 -0.28145100 -0.92096500
vn 0.31456500 -0.54488500 -0.77727100
vn 0.97408600 -0.16963800 0.14959500
vn 0.49332100 -0.84235600 -0.21695700
vn 0.15820200 -0.78467500 -0.59938000
vn 0.79767500 0.10536800 0.59381200
vn 0.67772400 -0.52952000 0.51019500
vn 0.01133300 0.99993600 0.00027700
vn 0.40503800 0.13925300 0.90363300
vn 0.41552000 -0.17055200 0.89345100
vn 0.27087800 -0.88910800 0.36893400
vn -0.68871000 0.72202300 -0.06604300
vn -0.12581500 0.99204400 0.00436600
vn -0.96382500 -0.18295900 0.19382500
vn -0.47487500 0.70680000 0.52433500
vn -0.39531400 0.63022700 -0.66823700
vn -0.40078800 -0.84691400 -0.34943700
vn -0.60599700 -0.56220500 -0.56275500
vn -0.58718800 -0.16708600 0.79201800
vn -0.46712900 -0.84579800 0.25771500
vn -0.24630700 -0.90099200 0.35713600
vn -0.04110500 -0.97607300 0.21352100
vn 0.36839800 -0.84145400 -0.39527000
vn 0.84860600 -0.23687600 0.47303000
vn 0.60175600 0.02293700 0.79835100
vn 0.07917400 0.99685800 0.00226200
vn -0.14769700 0.98899800 -0.00828500
f 24//24 13//13 8//8
f 24//24 8//8 2//2
f 24//24 2//2 13//13
f 27//27 2//2 8//8
f 31//31 21//21 1//1
f 32//32 28//28 5//5
f 32//32 10//10 28//28
f 39//39 6//6 37//37
f 40//40 22//22 4//4
f 41//41 23//23 8//8
f 41//41 8//8 13//13
f 43//43 25//25 7//7
f 44//44 11//11 26//26
f 44//44 43//43 7//7
f 44//44 26//26 43//43
f 45//45 26//26 11//11
f 45//45 38//38 19//19
f 46//46 27//27 14//14
f 46//46 2//2 27//27
f 48//48 14//14 27//27
f 48//48 5//5 28//28
f 48//48 47//47 15//15
f 48//48 15//15 5//5
f 49//49 18//18 35//35
f 50//50 30//30 15//15
f 50//50 1//1 30//30
f 50//50 15//15 47//47
f 51//51 15//15 30//30
f 51//51 9//9 33//33
f 52//52 17//17 9//9
f 52//52 39//39 37//37
f 54//54 21//21 31//31
f 54//54 31//31 12//12
f 54//54 39//39 21//21
f 54//54 6//6 39//39
f 55//55 32//32 5//5
f 55//55 16//16 32//32
f 55//55 33//33 16//16
f 55//55 5//5 15//15
f 56//56 18//18 10//10
f 56//56 10//10 32//32
f 56//56 32//32 16//16
f 57//57 9//9 17//17
f 57//57 34//34 16//16
f 58//58 35//35 18//18
f 58//58 3//3 35//35
f 58//58 18//18 56//56
f 58//58 34//34 3//3
f 58//58 56//56 16//16
f 58//58 16//16 34//34
f 59//59 20//20 11//11
f 59//59 11//11 44//44
f 60//60 37//37 6//6
f 60//60 38//38 20//20
f 61//61 11//11 20//20
f 61//61 20//20 38//38
f 61//61 45//45 11//11
f 61//61 38//38 45//45
f 62//62 19//19 38//38
f 63//63 1//1 21//21
f 63//63 21//21 39//39
f 63//63 30//30 1//1
f 64//64 40//40 4//4
f 64//64 4//4 19//19
f 64//64 19//19 62//62
f 64//64 62//62 36//36
f 65//65 64//64 36//36
f 65//65 40//40 64//64
f 66//66 8//8 23//23
f 66//66 23//23 42//42
f 66//66 53//53 8//8
f 66//66 42//42 22//22
f 66//66 65//65 12//12
f 66//66 12//12 53//53
f 66//66 22//22 40//40
f 66//66 40//40 65//65
f 67//67 42//42 23//23
f 67//67 22//22 42//42
f 68//68 43//43 13//13
f 68//68 13//13 2//2
f 68//68 2//2 46//46
f 68//68 46//46 25//25
f 68//68 25//25 43//43
f 69//69 43//43 26//26
f 69//69 13//13 43//43
f 69//69 26//26 45//45
f 69//69 41//41 13//13
f 70//70 45//45 19//19
f 70//70 19//19 4//4
f 70//70 67//67 23//23
f 70//70 4//4 22//22
f 70//70 22//22 67//67
f 71//71 46//46 14//14
f 71//71 14//14 48//48
f 72//72 29//29 49//49
f 72//72 49//49 7//7
f 72//72 7//7 25//25
f 73//73 48//48 27//27
f 73//73 47//47 48//48
f 73//73 53//53 47//47
f 73//73 8//8 53//53
f 74//74 48//48 28//28
f 74//74 28//28 10//10
f 75//75 10//10 18//18
f 75//75 18//18 49//49
f 75//75 74//74 10//10
f 76//76 49//49 35//35
f 76//76 7//7 49//49
f 76//76 35//35 59//59
f 76//76 59//59 44//44
f 76//76 44//44 7//7
f 77//77 31//31 1//1
f 77//77 1//1 50//50
f 78//78 50//50 47//47
f 79//79 51//51 30//30
f 79//79 9//9 51//51
f 79//79 52//52 9//9
f 79//79 30//30 63//63
f 79//79 63//63 39//39
f 79//79 39//39 52//52
f 80//80 51//51 33//33
f 80//80 15//15 51//51
f 80//80 55//55 15//15
f 80//80 33//33 55//55
f 81//81 53//53 12//12
f 81//81 12//12 31//31
f 81//81 31//31 47//47
f 81//81 47//47 53//53
f 82//82 6//6 54//54
f 82//82 36//36 62//62
f 82//82 62//62 38//38
f 82//82 60//60 6//6
f 82//82 38//38 60//60
f 83//83 54//54 12//12
f 83//83 65//65 36//36
f 83//83 12//12 65//65
f 83//83 82//82 54//54
f 83//83 36//36 82//82
f 84//84 33//33 9//9
f 84//84 9//9 57//57
f 84//84 57//57 16//16
f 84//84 16//16 33//33
f 85//85 57//57 17//17
f 85//85 17//17 52//52
f 85//85 52//52 37//37
f 85//85 60//60 20//20
f 85//85 37//37 60//60
f 86//86 85//85 20//20
f 86//86 57//57 85//85
f 86//86 3//3 34//34
f 86//86 34//34 57//57
f 87//87 59//59 35//35
f 87//87 35//35 3//3
f 87//87 20//20 59//59
f 87//87 86//86 20//20
f 87//87 3//3 86//86
f 88//88 23//23 41//41
f 88//88 41//41 69//69
f 88//88 70//70 23//23
f 88//88 69//69 45//45
f 88//88 45//45 70//70
f 89//89 71//71 29//29
f 89//89 46//46 71//71
f 89//89 29//29 72//72
f 89//89 72//72 25//25
f 89//89 25//25 46//46
f 90//90 71//71 48//48
f 90//90 29//29 71//71
f 90//90 48//48 74//74
f 90//90 74//74 75//75
f 90//90 75//75 49//49
f 90//90 49//49 29//29
f 91//91 73//73 27//27
f 91//91 27//27 8//8
f 91//91 8//8 73//73
f 92//92 50//50 78//78
f 92//92 78//78 47//47
f 92//92 47//47 31//31
f 92//92 31//31 77//77
f 92//92 77//77 50//50

